<svg width="500" height="500" viewBox="0 0 500 500" fill="none" xmlns="http://www.w3.org/2000/svg">
<g clip-path="url(#clip0_4249_1839)">
<path fill-rule="evenodd" clip-rule="evenodd" d="M191.09 66.5463V236.974C191.09 241.34 193.269 243.521 197.64 243.521H236.971C241.334 243.521 243.525 241.34 243.525 236.974V66.5463C243.525 62.1797 241.334 60 236.971 60H197.64C193.269 60 191.09 62.1797 191.09 66.5463Z" fill="#EB5959"/>
<path fill-rule="evenodd" clip-rule="evenodd" d="M125.547 132.045V171.338C125.547 175.704 127.729 177.889 132.1 177.889H171.424C175.795 177.889 177.982 175.704 177.982 171.338V132.045C177.982 127.679 175.795 125.492 171.424 125.492H132.1C127.729 125.492 125.547 127.679 125.547 132.045Z" fill="#EB5959"/>
<path fill-rule="evenodd" clip-rule="evenodd" d="M256.629 132.045V171.338C256.629 175.704 258.82 177.889 263.19 177.889H302.514C306.885 177.889 309.064 175.704 309.064 171.338V132.045C309.064 127.679 306.885 125.492 302.514 125.492H263.19C258.82 125.492 256.629 127.679 256.629 132.045Z" fill="#EB5959"/>
<path fill-rule="evenodd" clip-rule="evenodd" d="M125.547 197.532V367.954C125.547 372.32 127.729 374.505 132.1 374.505H171.424C175.795 374.505 177.982 372.32 177.982 367.954V197.532C177.982 193.166 175.795 190.984 171.424 190.984H132.1C127.729 190.984 125.547 193.166 125.547 197.532Z" fill="#C66BD6"/>
<path fill-rule="evenodd" clip-rule="evenodd" d="M60 263.028V302.324C60 306.69 62.1887 308.871 66.5597 308.871H105.883C110.254 308.871 112.436 306.69 112.436 302.324V263.028C112.436 258.662 110.254 256.48 105.883 256.48H66.5597C62.1887 256.48 60 258.662 60 263.028Z" fill="#C66BD6"/>
<path fill-rule="evenodd" clip-rule="evenodd" d="M191.09 263.028V302.324C191.09 306.69 193.269 308.871 197.64 308.871H236.971C241.334 308.871 243.525 306.69 243.525 302.324V263.028C243.525 258.662 241.334 256.48 236.971 256.48H197.64C193.269 256.48 191.09 258.662 191.09 263.028Z" fill="#C66BD6"/>
<path fill-rule="evenodd" clip-rule="evenodd" d="M322.18 132.045V302.464C322.18 306.834 324.359 309.012 328.73 309.012H368.054C372.424 309.012 374.607 306.834 374.607 302.464V132.045C374.607 127.679 372.424 125.492 368.054 125.492H328.73C324.359 125.492 322.18 127.679 322.18 132.045Z" fill="#36C5F1"/>
<path fill-rule="evenodd" clip-rule="evenodd" d="M256.629 197.539V236.828C256.629 241.194 258.82 243.383 263.19 243.383H302.514C306.885 243.383 309.064 241.194 309.064 236.828V197.539C309.064 193.173 306.885 190.984 302.514 190.984H263.19C258.82 190.984 256.629 193.173 256.629 197.539Z" fill="#36C5F1"/>
<path fill-rule="evenodd" clip-rule="evenodd" d="M387.719 197.539V236.828C387.719 241.194 389.902 243.383 394.273 243.383H433.596C437.967 243.383 440.154 241.194 440.154 236.828V197.539C440.154 193.173 437.967 190.984 433.596 190.984H394.273C389.902 190.984 387.719 193.173 387.719 197.539Z" fill="#36C5F1"/>
<path fill-rule="evenodd" clip-rule="evenodd" d="M256.629 263.028V433.446C256.629 437.816 258.82 440.001 263.19 440.001H302.514C306.885 440.001 309.064 437.816 309.064 433.446V263.028C309.064 258.662 306.885 256.48 302.514 256.48H263.19C258.82 256.48 256.629 258.662 256.629 263.028Z" fill="#FF9914"/>
<path fill-rule="evenodd" clip-rule="evenodd" d="M191.09 328.508V367.808C191.09 372.174 193.269 374.355 197.64 374.355H236.971C241.334 374.355 243.525 372.174 243.525 367.808V328.508C243.525 324.142 241.334 321.965 236.971 321.965H197.64C193.269 321.965 191.09 324.142 191.09 328.508Z" fill="#FF9914"/>
<path fill-rule="evenodd" clip-rule="evenodd" d="M322.18 328.508V367.808C322.18 372.174 324.359 374.355 328.73 374.355H368.054C372.424 374.355 374.607 372.174 374.607 367.808V328.508C374.607 324.142 372.424 321.965 368.054 321.965H328.73C324.359 321.965 322.18 324.142 322.18 328.508Z" fill="#FF9914"/>
</g>
<defs>
<clipPath id="clip0_4249_1839">
<rect width="380" height="380" fill="white" transform="translate(60 60)"/>
</clipPath>
</defs>
</svg>
